<?xml version="1.0" encoding="UTF-8" standalone="no"?>
<svg
   viewBox="-3 0 500 500"
   version="1.1"
   id="svg6"
   sodipodi:docname="1.svg"
   inkscape:export-filename="1.png"
   inkscape:export-xdpi="196.608"
   inkscape:export-ydpi="196.608"
   inkscape:version="1.3-dev (9d45eb5e59, 2022-10-18, custom)"
   xmlns:inkscape="http://www.inkscape.org/namespaces/inkscape"
   xmlns:sodipodi="http://sodipodi.sourceforge.net/DTD/sodipodi-0.dtd"
   xmlns="http://www.w3.org/2000/svg"
   xmlns:svg="http://www.w3.org/2000/svg"
   xmlns:bx="https://boxy-svg.com">
  <defs
     id="defs6" />
  <sodipodi:namedview
     id="namedview6"
     pagecolor="#ffffff"
     bordercolor="#000000"
     borderopacity="0.25"
     inkscape:showpageshadow="2"
     inkscape:pageopacity="0.0"
     inkscape:pagecheckerboard="0"
     inkscape:deskcolor="#d1d1d1"
     showgrid="false"
     inkscape:zoom="1.4142136"
     inkscape:cx="209.30361"
     inkscape:cy="217.78889"
     inkscape:window-width="3440"
     inkscape:window-height="1361"
     inkscape:window-x="0"
     inkscape:window-y="526"
     inkscape:window-maximized="1"
     inkscape:current-layer="svg6" />
  <g
     transform="matrix(1.8115775,0,0,1.8115775,99.85412,-247.44104)"
     bx:origin="-0.26432 -0.028269"
     id="g5" />
  <path
     class="st0"
     d="m 13.624224,125.96002 -1.068831,3.93113 -0.706515,6.86587 0.163042,0.54348 0.07246,0.48912 0.01812,0.39855 -0.05435,4.65575 -0.108694,2.37317 -0.525358,3.47823 -2.9528711,6.86588 -3.9130074,9.29339 0.163042,0.92391 -0.6521679,1.52172 -1.3586831,2.37317 -1.2318727,1.79346 -0.94202032,1.14129 -1.2318727,1.30434 -2.24635608,2.39128 -1.9021564,1.84781 -1.28622,1.3768 -0.7065152,0.79709 -1.8659249,2.4094 -2.6449032,3.82243 -0.108695,0.19927 -0.778978,7.53617 0.199274,0.52535 6.1774789,11.81149 0.7065152,1.23187 0.9782519,2.53621 0.7608625,2.01085 1.3949147,3.71373 0.036232,0.1087 0.018116,6.48545 -0.090579,1.0326 -0.6340522,4.18474 -0.054347,0.28985 -0.724631,1.12318 -0.036231,0.0362 -0.1086947,0.16304 -0.1992735,0.27174 -0.561589,0.57971 -0.3985471,0.59782 -0.724631,1.05071 -0.6883994,1.53984 -0.5978206,1.48549 -0.072463,0.32609 -0.1086947,0.70651 -1.7753459,18.33317 2.2282403,4.81879 1.4854936,2.66302 h 0.018116 l 2.0108511,3.58693 6.7390683,12.89843 2.0651983,7.33689 0.1268104,0.32608 0.3623155,1.06883 0.1086947,0.77898 -1.7028829,9.076 10.2716446,11.77526 0.362316,0.3442 0.543473,0.27173 0.851441,0.1087 1.920272,-1.88404 0.01812,-0.12681 -0.181157,-0.4529 -0.543474,-0.88767 -0.543473,-0.67028 -0.217389,-0.3442 0.09058,-0.32609 1.213757,-3.82243 1.159409,-3.02533 3.206492,-0.88767 v 0.0181 l 3.242724,4.85503 0.03623,0.39855 -0.09058,0.27173 -0.887673,0.6884 -0.6884,0.32609 -4.130396,0.90579 1.195641,2.71736 1.249988,0.92391 v 0.0181 l -0.579705,2.82606 2.518093,7.31878 -0.03623,7.28254 -0.01812,0.0362 -0.597821,0.16304 -0.869557,-0.30797 -0.362315,-0.2355 -5.036186,-5.28981 -0.434779,-0.6884 0.706516,-4.2572 h 0.05435 l 0.778978,-0.18116 0.181158,-0.59782 0.181158,-2.48186 -0.235505,-0.70652 -0.21739,-0.32608 -0.59782,-0.14493 -1.249989,-0.0906 -1.503609,0.28985 -0.380431,0.21739 -0.416663,2.37317 -0.03623,0.65217 v 0.0181 l -1.231872,4.38402 -0.996368,4.40213 -0.543473,10.79701 -0.07246,1.97462 0.144926,0.41666 1.195641,2.22824 0.887673,1.44926 0.253621,0.41666 v 0.0181 l 0.778978,2.37317 0.942021,2.24635 1.249988,1.79346 1.268104,1.43115 0.3442,0.21739 0.47101,0.25362 0.108695,0.0543 0.253621,0.14492 0.525357,0.12681 0.742747,0.1087 1.449262,0.0725 1.63042,-0.38043 0.307968,0.0725 0.652168,0.57971 0.289852,0.39855 0.326084,0.61593 0.362316,0.90579 0.507241,2.4094 0.235505,1.30434 0.01812,0.0906 0.181158,1.52173 -0.03623,0.48912 -1.594188,3.46012 -0.59782,1.19564 -0.634053,0.94202 -0.362315,0.43478 -0.489126,0.50724 -0.797094,0.59782 -0.398547,0.18116 h -0.525358 l -0.07246,-0.0181 -2.336935,0.83333 -1.06883,10.59773 0.03623,0.65216 0.289853,0.6884 0.815209,1.88404 0.199274,0.4529 0.326084,0.39855 0.199273,0.10869 0.326084,0.0362 h 0.01812 l 0.47101,0.41666 1.648536,1.86593 0.851441,1.52172 3.85866,8.2608 0.03623,0.18116 0.199273,1.19564 -0.07246,1.35868 -0.03623,0.74275 -0.05435,1.53984 1.720999,3.17026 1.032599,1.50361 0.126811,3.60504 0.525357,1.84781 0.326084,0.39854 0.561589,0.59782 3.677502,5.67024 5.579659,10.27165 3.007219,8.20644 0.289852,0.19928 0.144926,0.12681 1.014484,1.03259 0.307968,0.30797 0.144926,0.39855 0.108695,0.67028 v 0.0543 l -0.07246,0.92391 -0.01812,0.0725 -0.03623,0.19927 -0.144926,0.6884 -0.199273,0.6884 -0.416663,1.12318 -0.525358,1.15941 -0.05435,0.0725 -0.525357,0.96014 h -0.01812 l -0.742747,2.9891 -2.137661,10.97816 -0.271737,3.31519 4.365902,5.70647 3.38765,0.5797 2.844176,0.36232 2.499977,0.52535 2.137662,0.56159 2.554324,0.94202 0.978252,0.39855 2.463745,1.77535 1.431146,1.44926 4.20286,1.32245 1.992735,0.0906 h 0.579705 l 1.865925,0.27174 1.829693,0.79709 2.427514,2.22824 0.07246,-0.0181 -0.07246,0.0543 0.416663,0.19928 0.797094,1.01448 3.441997,4.42025 5.01807,8.7318 4.565175,3.442 v -0.0181 l 5.14488,2.28259 1.376799,-0.10869 2.626788,0.3442 3.3333,0.70651 0.83332,0.32608 0.57971,0.54348 0.0906,0.0906 0.0906,0.12681 0.27173,0.39854 0.0725,0.0906 0.36231,0.70652 0.0181,0.0181 0.0543,0.12681 0.0362,0.0906 0.47101,1.26811 0.32608,1.30433 0.18116,1.08695 0.0906,0.52536 0.16304,0.9239 0.25362,1.92027 -0.21739,1.05072 -0.19927,0.41666 -0.39855,0.0906 -0.79709,0.57971 -0.23551,0.25362 0.25362,1.46737 0.43478,0.36232 2.42751,1.57607 0.63406,0.36232 1.24998,0.48912 2.71737,0.0543 2.59056,-0.3442 v 0.0181 l 1.24999,1.55795 5.14488,6.28618 6.39486,8.02529 0.36232,0.52535 0.5797,1.17753 0.21739,0.88767 v 0.0181 l 0.74275,0.50724 0.6884,0.74275 1.12318,1.6123 0.76086,1.59419 0.1087,0.19927 0.54347,1.32245 1.88404,4.72822 0.0543,0.16304 0.67028,1.99274 0.18116,1.2681 0.39854,3.56881 -0.0181,0.86956 -0.0362,2.24635 h -0.0181 v 0.3442 l -0.63405,10.28976 1.59419,6.93834 h 0.19927 l 9.14847,1.12318 9.5289,1.12318 6.75718,0.77898 6.63037,0.79709 3.26084,0.39855 v 0.0181 l 3.40577,0.39854 4.61952,0.54348 10.86947,1.28622 2.93475,0.3442 0.50724,0.0543 25.74252,3.06157 h 0.19927 l 3.65939,0.27174 4.83691,-2.98911 1.50361,-2.11954 0.30797,-1.06883 0.3442,-2.73549 -1.0326,-2.40939 -0.1087,-0.1087 -0.10869,-0.10869 -3.02533,-0.50724 -0.56159,-0.25363 -1.59419,-1.12317 -0.72463,-1.93839 -0.0181,-0.0725 2.04708,-12.6267 3.49635,-0.86956 h -0.0362 0.0362 l 4.18474,-4.9456 1.35869,-4.7101 0.99636,-4.9275 0.19928,-1.35868 0.88767,-3.18838 0.97825,-1.68476 3.11592,-4.40214 h 0.0181 l 4.29344,-1.64853 2.95287,-1.21376 4.3659,-2.51809 0.0725,-0.0543 0.10869,-1.81158 -1.59419,-2.78983 -1.84781,-2.06519 -2.11954,-2.55433 -2.15578,-9.05789 -0.10869,-1.68476 -2.31882,-3.64127 -1.8297,-4.76445 -0.0362,-0.21739 0.0543,-0.57971 1.05071,-4.61952 -4.56517,-6.7753 -12.33684,-18.47809 -0.85145,-1.2681 -2.3007,-3.442 -6.68472,-10.03614 h -0.0181 l 0.0181,-0.0181 -6.55791,-9.74628 -0.38043,-0.54348 -4.78257,-7.15573 -1.14129,-1.721 -8.91296,-13.36944 -10.99628,-16.44912 -2.08331,-3.15215 -3.56881,-5.30792 -0.61593,-0.9239 -16.73898,-25.1447 -0.0906,-0.0362 0.10869,0.0181 -14.83682,-22.13748 -17.78969,-26.757 -4.18474,-6.21371 -6.21371,-9.29339 h -0.0181 l -7.66297,-11.50352 0.36232,0.77898 v 0.0181 l -0.36232,-0.77898 -1.64854,-6.24994 -0.0725,-0.0362 0.0725,0.0181 0.43478,-1.8297 0.52536,-2.17389 1.55796,-6.12313 v -0.0181 l 1.41303,-5.21734 2.97099,-11.2499 h -0.0181 0.0181 l 0.63405,-2.37316 3.13403,-11.79337 2.04708,-7.75355 0.0181,-0.0362 0.59783,-2.33693 1.88404,-7.26443 3.74996,-14.89116 3.31519,-12.93467 -0.21739,-0.0725 0.21739,0.0543 8.51441,-32.89825 -8.58687,-2.17389 -1.17753,-0.30797 -10.92381,-2.89853 h -0.0362 l -5.52532,-1.48549 -16.847662,-4.7101 v -0.0181 l -24.872959,-7.40935 -1.666652,-0.50724 -0.94202,-0.30797 -3.659387,-0.99637 -4.003586,-0.99636 -10.090486,-2.84418 -0.778979,-0.21739 -1.304336,-0.38043 -3.17026,-1.15941 -2.228241,-0.4529 h -0.07246 l -8.53253,-2.39128 v -0.0181 0.0181 l -9.00354,-2.48186 z m 44.582922,357.67786 -0.235505,0.28986 0.670284,3.78619 0.07246,0.25362 0.905789,0.67029 1.014483,0.47101 0.452894,0.21739 h 0.01812 l 1.213757,0.47101 1.249988,0.28985 5.724585,-0.10869 0.235505,-0.0362 0.326084,-0.25362 1.123178,-0.86955 0.03623,-0.0181 0.01812,-0.0362 h 0.01812 l -0.235506,-0.3442 -1.105062,-0.81521 -0.923904,-0.0543 -0.108695,0.0362 -0.181158,0.1087 -0.12681,0.0725 -0.09058,0.0362 -0.05435,0.0362 -0.108695,0.0725 -3.369534,-1.12318 -1.28622,-0.90579 v -0.0181 l -3.224608,-1.46737 -1.793462,-0.70652 z m -11.775254,0.3442 v 0.0181 z m 0,0.0181 1.557957,3.47823 0.253621,0.43478 1.322451,1.35868 0.452895,-0.0181 4.963722,-0.5797 0.144926,-0.0362 0.01812,-0.25362 0.09058,-1.3768 -2.717366,-2.49998 z m 49.65534,34.98156 -0.03623,0.0543 0.03623,0.30797 0.144926,0.10869 v -0.0181 l 2.989103,6.84776 0.271736,0.25362 4.184743,1.97462 h 0.30797 l 0.48913,-0.28985 0.16304,-0.38044 -0.0906,-0.68839 -0.12681,-0.3442 -1.57607,-3.26084 -1.23188,-1.0326 -1.6123,-1.28622 -1.992736,-1.59419 -1.775346,-0.59782 z m -4.07605,19.23895 0.724631,4.54706 0.797094,2.55433 0.21739,0.3442 1.648535,2.02896 2.590556,0.1087 0.108695,-0.1087 -0.398547,-0.85144 -4.764449,-8.31514 z"
     style="display:none;fill:#d0d0d0;stroke-width:1.81158"
     id="path1" />
  <path
     class="st0"
     d="m 291.3934,-101.50165 -1.41303,6.123133 -7.48181,32.173617 -0.61594,2.735482 -5.48908,24.673685 h 0.0181 l -0.97826,4.311555 -1.21375,5.326037 -5.32604,23.6954342 -1.06883,4.6919857 -0.61594,1.8115775 0.90579,3.6775023 0.0362,0.1449262 0.27174,2.3007031 0.18116,3.568808 -1.39492,3.822429 0.18116,2.880408 2.04708,6.394868 0.0362,0.01812 -0.0362,0.05435 0.12681,0.235506 0.0906,0.163042 1.32245,1.213756 2.53621,2.336935 1.06883,0.471011 h 0.0181 l 0.50724,0.634052 0.56159,0.724631 0.18116,0.797094 0.99636,5.27169 -0.10869,0.525358 -0.70652,0.797094 -2.78982,2.862292 -5.03619,6.467332 -0.97825,2.065198 h -0.0181 v -0.01812 l -4.34778,7.083268 -1.41303,1.28622 -0.92391,0.851441 -0.72463,1.521725 0.0362,0.833326 0.1087,0.398547 0.18115,0.398547 0.0362,0.3442 -0.0362,0.03623 -0.97825,1.684767 -0.6884,0.724631 -0.86955,0.923905 v 0.01812 0.01811 l -1.59419,1.702883 -2.78983,0.94202 -0.70652,0.163042 -0.19927,0.09058 -0.6884,0.615937 -6.44922,8.858614 -0.36231,0.724631 -0.99637,6.847763 -0.0725,0.217389 -0.0362,0.3442 0.0543,0.59782 0.43478,0.742747 3.62316,1.467378 0.27173,-0.126811 h 0.16305 l 1.15941,0.398547 0.30796,0.199274 1.53984,3.061566 0.0362,0.05435 0.0906,0.326084 -0.0362,0.416663 v 0.03623 h -0.0181 l -0.0543,0.108694 -0.0362,0.09058 -0.0362,0.07246 -1.46738,1.793462 -1.14129,4.619518 -1.41303,2.68114 -0.86956,1.44926 0.0181,0.0181 h -0.0181 l -3.20649,7.78978 h -0.0181 l -15.41652,68.62256 0.2355,0.0906 11.75714,2.69926 3.49634,0.79709 44.38365,9.4202 0.0181,0.0181 3.76808,0.59782 4.56517,0.9239 7.97095,1.81158 6.55791,1.28622 v -0.0181 l 7.22819,1.43115 2.02897,0.50724 2.42751,0.57971 0.36232,0.0725 2.59055,0.4529 0.96014,0.16304 10.1086,1.721 0.88767,0.14492 12.19192,2.0652 v -0.0362 0.0362 l 8.85861,1.50361 7.84413,1.35868 6.4311,1.12318 h 0.0181 l 2.22824,0.57971 1.64854,0.25362 18.33316,2.97098 -0.0543,-0.0725 0.0725,0.0725 14.02161,2.19201 3.40576,-21.15922 3.40577,-20.92372 2.04708,-12.69916 1.08695,-7.17385 3.09779,-19.92735 h -0.0362 l 0.0362,-0.0181 3.2065,-20.23532 -2.37317,-2.19201 -0.3442,-0.99636 -1.28622,-3.73185 -2.39128,-4.69199 -1.39492,-1.3768 -3.31518,1.24999 -5.03619,5.77893 -3.7862,-0.10869 -5.86951,-1.66665 -8.09775,-0.83333 -4.42025,1.66665 -10.41657,-2.59055 -1.9565,0.47101 -1.1413,1.21375 -0.41666,0.65217 -0.3442,1.55796 v 0.0181 l -0.0181,0.1087 -0.28986,0.45289 -0.59782,0.32609 -0.76086,-0.27174 -2.37317,-2.6449 -0.79709,-1.15941 -0.3442,-1.97462 0.0362,-5.199229 0.1087,-0.09058 0.18115,-0.326084 v -0.326084 l -0.85144,-3.623155 -0.63405,-1.992735 -0.56159,-0.851442 -1.23187,-1.376798 -1.0326,-0.81521 -0.99637,0.235505 -4.83691,-6.720953 -4.56518,-16.938249 -0.0362,-3.26084 0.0725,-2.481861 0.38043,-0.6884 0.0181,-1.231872 -0.32608,-3.297071 -0.16304,-0.525358 -2.82606,-3.98547 -0.59782,-0.634052 v -0.01812 l -2.55433,1.467378 -3.58692,3.152144 -5.70647,2.626788 -1.19564,-0.181158 -0.25362,-1.014483 -2.13766,-3.38765 -0.36232,-0.163042 -1.14129,-0.289853 -1.28622,-0.181157 -0.0906,-0.108695 0.0362,-0.144926 0.50724,-2.826061 1.01448,-5.579659 8.11587,-20.271552 2.55433,-5.670238 1.70288,-3.913007 0.99637,-2.844177 0.18115,-0.9239042 -0.10869,-0.4891259 -0.16304,-0.163042 v 0.018116 l -0.12681,-0.1268104 -0.50725,-0.4166629 -1.5036,-0.1992735 -0.74275,0.1449262 -0.4529,0.1811578 -0.65216,0.1811577 -3.0978,-0.6521679 -0.0543,-0.054347 -0.36231,-0.072463 h 0.38043 l -1.57608,-3.949239 h -1.24998 l -0.18116,-0.054347 -0.39855,-0.1086946 -4.20286,-5.5977745 -0.12681,-0.3623155 v -0.018116 l -0.56159,-4.2028598 h -0.0181 l -0.72463,-1.3224516 -1.34057,-2.4999769 -2.37317,-5.525311 -2.53621,-5.706469 -0.50724,-0.271737 -2.21012,-0.887673 -1.52173,-0.742747 -0.48912,-0.416662 -0.61594,-0.525358 -4.45648,-6.159363 -0.0362,-1.0326 v -0.03623 l 0.54347,-3.351418 0.79709,-1.829694 0.94203,-2.391282 0.0181,-2.336935 v -0.163042 l -0.0181,-0.05435 -0.0362,-0.108695 -0.0362,-0.144926 -5.59777,-11.412938 -0.85144,-1.521726 -0.0181,-0.01811 2.02897,-9.601361 2.49997,-11.57598 4.29344,-20.108511 z"
     style="display:none;fill:#d0d0d0;stroke-width:1.81158"
     id="path2" />
  <path
     class="st0"
     d="m 138.55061,161.32201 -8.51442,32.89825 -3.31518,12.91655 -3.73185,14.89117 -1.88404,7.26442 -0.59782,2.33694 -0.0181,0.0362 -2.04708,7.75355 -3.13403,11.79337 -0.63405,2.37317 -2.97099,11.24989 -1.41303,5.21735 -1.55796,6.12313 0.0362,0.0181 h -0.0362 l -0.52535,2.15578 -0.43478,1.82969 1.64853,6.24995 7.66297,11.50351 6.21372,9.2934 v 0.0181 l 4.18474,6.23183 h 0.0181 l 17.77157,26.73888 0.0181,0.0181 14.8187,22.13748 16.73898,25.12658 v 0.0181 l 0.63405,0.92391 3.56881,5.30792 2.08331,3.15214 10.99628,16.44913 8.91296,13.36944 1.14129,1.721 4.78257,7.15573 0.38043,0.54347 6.55791,9.74629 6.68472,10.03614 2.3007,3.442 0.85144,1.2681 12.35496,18.47809 4.54706,6.7753 3.11591,-5.21734 0.30797,-0.99637 0.18116,-0.83333 0.0362,-0.9239 0.23551,-5.07242 -0.0543,-1.23187 -0.30797,-2.44563 -0.43478,-5.14488 0.39855,-7.30066 0.90579,-11.93829 0.41666,-4.07605 0.0362,-0.27174 0.4529,-0.39855 0.32608,-0.18115 3.73185,-0.86956 h 2.04708 l 1.92028,0.39855 4.23909,1.24998 0.45289,0.41667 0.97825,1.39491 0.39855,1.01448 0.0543,0.32609 0.0181,0.0906 0.0362,0.3442 0.2355,0.6884 0.77898,1.23187 0.28985,0.30797 0.41666,0.32608 0.18116,0.0362 0.65217,0.0725 2.02897,0.0362 h 0.0362 l 0.18116,-0.1087 0.45289,-0.50724 4.22098,-5.70647 1.41303,-7.31877 0.79709,-4.20286 1.32245,-7.55428 0.16304,-0.83332 1.30434,-6.84777 v -0.0181 l 1.24999,-6.48545 4.72822,-24.92731 4.40213,-22.40921 3.35142,-17.49984 0.85144,-4.31155 -0.0725,-0.0181 h 0.0725 l 6.92022,-35.66996 2.89853,-14.96363 1.68477,-8.69557 7.1195,-36.34025 7.88036,-40.92353 -7.24631,-1.43115 -6.55791,-1.28622 -7.97094,-1.81158 -4.54706,-0.9239 -3.76809,-0.59782 -44.38364,-9.4202 -3.49635,-0.7971 -11.75714,-2.69925 v -0.0181 l -0.2355,-0.0906 -35.19895,-8.00718 -17.42738,-4.00358 -16.34043,-4.1304 -1.06883,-0.27174 z"
     style="display:none;fill:#d0d0d0;stroke-width:1.81158"
     id="path3" />
  <path
     class="st0"
     d="m 71.576588,-40.759455 -0.489126,0.416663 0.380431,3.677502 -0.235505,0.81521 -0.108694,1.521725 -0.01812,1.268104 -0.579705,2.010851 -2.355051,0.923905 0.81521,1.775346 -2.336935,5.199227 0.05435,2.173893 v 0.271737 l -0.108695,0.760862 -0.561589,1.884041 -6.376753,18.09765913 -0.652168,1.61230397 -0.235505,0.5434733 -0.05435,0.1086946 -0.833326,1.5760724 -0.01812,0.036232 -0.108694,0.2173893 -1.014484,1.8296933 -2.518092,5.507195 -4.54706,11.376707 -2.499977,6.974573 -0.181158,0.434779 -1.630419,3.333302 -1.105063,2.083315 -6.268058,16.123039 -4.818796,9.56513 h -0.01812 l -0.362315,1.88404 -5.941974,7.826015 -2.862293,0.81521 0.579705,2.644903 -6.992689,10.724539 0.05435,0.01812 -0.05435,-0.01812 -3.550692,3.913007 -0.01812,3.804313 -0.03623,1.068831 2.137661,4.45648 -0.869557,4.202863 -1.684767,1.59419 -0.21739,0.50724 -0.851441,2.3007 -1.032599,3.442 -0.307968,8.89484 1.358683,4.11228 1.141294,2.4094 11.467285,3.60504 9.00354,2.49998 8.53253,2.39128 h 0.01812 l -0.01812,0.0362 h 0.07246 l 2.228241,0.4529 3.17026,1.15941 1.304336,0.38043 0.778979,0.21739 10.090486,2.84417 4.003586,0.99637 3.659387,0.97825 0.94202,0.30797 1.666652,0.50724 24.872959,7.40935 16.847665,4.71011 v 0.0181 l 5.52532,1.4855 h 0.0362 l 10.92381,2.89852 1.17753,0.30797 8.58687,2.17389 19.07591,4.85503 0.0181,-0.0181 v 0.0181 l 1.06883,0.27174 16.34043,4.13039 17.42737,4.00359 v -0.0362 l 35.18084,8.00717 15.41652,-68.62256 3.22461,-7.8079 0.86956,-1.44926 1.41303,-2.68113 1.14129,-4.619525 1.46738,-1.811578 0.0362,-0.07246 0.0362,-0.09058 0.0543,-0.108695 h 0.0181 v -0.03623 l 0.0362,-0.416663 -0.0906,-0.326083 -0.0362,-0.05435 -1.53984,-3.061566 -0.30797,-0.181158 -1.15941,-0.416662 h -0.16304 l -0.27174,0.12681 -3.62315,-1.467378 -0.43478,-0.742746 -0.0543,-0.597821 0.0362,-0.3442 0.0725,-0.199273 h 0.0181 l 0.99637,-6.865879 0.36231,-0.724631 6.44922,-8.858614 0.6884,-0.615936 0.19927,-0.09058 0.70652,-0.163042 2.78983,-0.942021 1.59419,-1.702882 0.86955,-0.923905 0.6884,-0.724631 0.97825,-1.684767 0.0362,-0.03623 -0.0362,-0.344199 -0.18115,-0.398547 -0.1087,-0.398547 -0.0362,-0.833326 0.72463,-1.521725 0.92391,-0.851442 1.41303,-1.28622 -0.0543,-0.05435 0.0543,0.01812 4.34778,-7.083268 0.97825,-2.083314 5.03619,-6.467332 2.78983,-2.862292 0.70651,-0.797094 0.1087,-0.525358 -0.99637,-5.27169 -0.19927,-0.797095 -0.56159,-0.706515 -0.50724,-0.634052 h -0.0181 l -1.06883,-0.47101 -2.53621,-2.336935 -1.32245,-1.213757 -0.0906,-0.163042 -0.12681,-0.235505 -2.04708,-6.394869 -15.97812,-3.731849 -3.47822,-0.851442 -10.57962,-2.536208 v -0.01812 -0.01812 0.01812 l -0.52535,-0.12681 -27.98888,-6.7028367 v -0.018116 l -0.81521,0.6883995 -0.61593,0.2717366 -2.11955,0.6159363 -1.0326,0.163042 -1.2681,-0.090579 -0.70652,-0.2173893 -0.79709,-0.4166628 -4.3659,-0.5978205 -1.64854,-0.090579 v 0.018116 l -1.64853,-0.1086947 -1.28622,-0.5978206 -1.57608,-0.9057887 -1.48549,0.8695572 -1.28622,1.3224516 -3.02533,-0.2898524 -2.78983,-0.2898524 h -3.94924 -0.0181 -0.0362 l -4.3659,0.5434732 -0.92391,0.2355051 -1.52172,1.1412938 -5.7427,-0.3441997 -2.26447,-0.3985471 -0.59782,-0.3804312 -0.36232,-0.5072417 -0.76086,-1.4311463 -0.81521,-0.561589 -1.24999,-0.3079682 -0.61594,0.1992736 -1.24999,0.5978205 -3.11591,0.4347786 -2.55432,0.3985471 -1.52173,0.4710101 -0.0181,0.018116 v -0.018116 l -0.63406,-0.8333256 -2.6449,-1.2318727 -3.89489,1.6304197 -0.4529,-3.297071 -3.5688,-2.0470826 -0.99637,-0.1992735 -1.99274,-0.28985242 v -0.018105 l -1.99273,-1.72099858 -3.11591,-0.054347 -2.4094,-0.1811577 -0.77898,-0.1992735 -2.01085,-1.1050623 -1.721,0.1086947 -1.23187,0.6340521 -0.81521,0.724631 v -0.018116 0.018116 l -10.32599,1.43114618 h -0.54348 l -0.79709,-0.19927352 h -0.0181 l -0.94202,-0.47101016 -8.07963,-4.9818381 -0.77898,-0.5797048 -1.485495,-1.5579566 -0.561589,-0.724631 -0.03623,-1.0144834 0.271736,-0.7608626 0.615937,-1.0325995 -0.03623,-0.03623 0.03623,0.01812 0.760861,-5.072417 0.21739,-0.688399 0.25362,-3.949239 -0.81521,-4.54706 -0.271735,-1.105062 -4.691986,-5.760816 -1.376799,-0.56159 -1.485493,0.271737 -4.492713,-0.181158 v 0.01812 -0.01812 0.01812 l -0.217389,-0.07246 -1.213757,-1.902156 0.634052,-1.865925 -0.307968,-0.978252 -0.416663,-0.760863 -0.108694,-0.199273 -0.09058,-0.05435 -0.163042,-0.108695 -1.884041,-0.108695 -0.144926,0.416663 -1.28622,0.47101 -0.597821,1.068831 -3.496344,-0.398547 -0.978252,-1.449262 -1.956504,0.01812 -1.340567,0.797094 -1.014483,-0.996368 -0.960137,-1.920272 z m 28.17003,29.782334 v 0.01812 z"
     style="display:none;fill:#d0d0d0;stroke-width:1.81158"
     id="path4" />
  <path
     class="st0"
     d="m 195.16164,167.88116 -0.1087,1.06883 1.44926,0.52535 0.21739,-0.0725 -0.0906,-1.08695 -1.30433,-0.38043 z m 8.85861,2.57244 -0.56159,0.32608 -0.77898,0.45289 -0.76086,0.59782 -0.25362,0.41667 -0.0181,0.14492 1.73912,0.39855 -0.0362,1.15941 -1.24999,0.5797 1.35868,2.37317 -0.50724,2.39128 0.63405,-0.54347 0.72463,0.83333 -0.0906,0.99636 -0.96013,1.08695 0.16304,1.59419 0.94202,0.6884 0.47101,-0.70652 -0.23551,-0.52535 -0.65216,-0.0362 1.6123,-1.59418 h 1.46738 l 1.28622,1.5036 -1.17753,1.19565 0.0906,3.06156 h 0.0181 -0.0181 l 0.7971,1.06883 0.36231,1.08695 -1.57607,1.34057 -0.63405,-0.74275 -1.35869,-1.14129 -0.39854,0.47101 1.35868,0.96013 0.21739,1.15941 -0.39855,1.21376 0.0725,1.43114 -0.68839,0.59783 -0.76087,-0.41667 -0.48912,-2.13766 -0.76087,0.41666 -0.21739,-1.43114 -0.68839,-0.1087 -1.34057,0.25362 -0.81521,-0.14492 -0.14493,0.5797 0.6884,0.32609 0.18116,0.59782 -0.18116,0.79709 -0.47101,0.3442 0.0906,1.23187 0.47101,0.19928 h 0.76086 l 0.61594,-0.14493 0.52536,-0.63405 0.52535,0.38043 -0.47101,1.14129 0.18116,1.66666 1.53984,1.34056 1.4855,1.39492 0.48912,1.35868 v 0.0181 l -0.6884,1.55795 -0.2355,1.26811 -0.0725,2.19201 -0.28985,0.90578 -0.30797,1.01449 0.0181,0.0725 0.25362,1.21376 1.14129,2.39128 1.10507,1.15941 0.0362,0.57971 -0.47101,1.59419 -0.16304,0.19927 -0.65217,0.30797 -0.81521,-0.1087 -0.86956,0.0725 -4.0217,5.10865 -0.32609,0.92391 -0.0181,0.0906 h 0.0181 l 0.14493,2.82606 -2.13766,1.70288 0.0543,1.06883 1.55795,1.79346 -0.32608,1.26811 -0.72463,0.50724 -0.65217,-1.08695 -0.48913,0.27174 -0.19927,1.93839 0.19927,2.24635 -0.45289,0.97825 0.59782,2.04709 -0.9239,2.24635 -2.46375,0.19928 0.0181,0.0181 h -0.0181 l -0.43478,0.76086 0.56159,0.96013 -0.72463,0.77898 -1.10506,0.28985 -0.90579,-1.70288 -0.65217,-1.46738 -0.28985,1.59419 -1.24999,1.34057 -1.0326,1.15941 -1.15941,1.0326 -0.56159,1.10506 -1.06883,-0.0362 -0.96013,1.24999 -1.12318,0.52536 v -0.0181 l -1.08695,-0.65217 -0.97825,-1.81158 -0.45289,-1.50361 -0.48913,2.44563 -0.57971,-0.12681 -0.21738,-1.19564 -0.0362,-1.46738 -0.88767,0.38043 -0.39855,1.86593 -0.54347,1.3768 -0.6884,0.12681 -0.0181,-1.86593 1.08694,-2.21012 -0.28985,-0.81521 -0.67028,0.12681 -0.67029,0.48912 -0.63405,-0.0362 -0.45289,0.54348 -1.17753,0.43478 -0.85144,0.50724 -0.0181,-0.0181 h 0.0181 l 0.5797,-1.23187 0.90579,-0.0725 0.1087,-0.72464 1.15941,-0.59782 1.28622,-0.41666 1.63042,0.4529 -0.23551,-1.59419 -0.10869,-1.17753 0.54347,-1.41303 1.28622,-0.41666 1.50361,-0.63405 1.46738,-2.11955 0.52535,1.21376 -0.36231,2.28258 -1.43115,1.8297 0.1087,1.97462 0.59782,1.52172 1.17752,-2.59055 0.41667,-1.95651 1.14129,-2.40939 1.63042,-0.52536 1.90216,0.38043 -2.11955,1.77534 -0.41666,1.28623 -0.21739,0.83332 0.94202,0.36232 1.23187,1.0326 0.90579,-1.15941 -0.38043,-1.81158 1.12318,-0.47101 0.67028,-2.11955 -0.0362,-0.0181 h 0.0362 l 2.62679,-3.913 -0.85144,-0.6884 0.43478,-1.55796 -0.50725,-0.6884 -0.59782,0.77898 -1.17752,0.3442 -0.97825,-0.0362 -0.7971,0.18115 -0.50724,-0.52535 0.97825,-0.70652 0.81521,-0.5797 0.0906,-1.08695 -0.67028,0.0362 -0.54348,-0.94202 1.21376,-1.64854 0.36232,1.26811 -0.0543,2.26447 1.23187,-0.43478 0.70652,-1.30433 -0.63406,-1.41303 0.59782,-1.50361 -1.10506,-1.44927 0.92391,-1.01448 0.9239,2.13766 0.88767,-0.25362 1.08695,-1.32245 1.05072,0.70652 1.01448,-0.0543 -0.43478,-1.4855 0.47101,-0.48912 -0.25362,-1.01449 0.54347,-2.33693 -0.0906,-1.10506 -0.41666,-0.6884 -1.14129,-0.47101 0.2355,2.3007 -1.2681,1.06883 -2.31882,0.9239 -0.56159,0.88768 -2.01085,1.28622 -0.74275,1.9565 -1.34056,1.21376 -4.07605,0.21739 -0.3442,0.9239 -1.46738,0.1087 -1.90216,1.32245 -0.39854,0.45289 -0.94203,1.43115 -3.38765,3.11591 1.1413,0.76086 1.28622,0.0543 2.53621,-0.36231 1.92027,-0.56159 1.34057,-0.32608 -0.28986,1.32245 -0.86955,0.36231 -2.01085,0.63406 -1.34057,-0.16305 -1.88404,0.6884 -1.88404,-0.63405 -0.90579,0.61594 -0.90579,-1.35869 0.88767,-1.70288 2.21013,-2.39128 1.48549,-1.15941 0.65217,-1.59419 2.01085,-1.6123 0.18116,-0.1087 0.5797,-0.14492 h 0.0181 l 1.70288,-1.21376 1.57607,-1.14129 1.55796,-2.1739 0.67028,-3.20649 0.97826,-0.32608 -0.32609,2.06519 0.41666,0.0181 0.57971,-2.68113 1.0326,0.0725 -0.27174,2.01085 -2.35505,4.49271 0.83333,0.0906 0.94202,-2.10143 0.50724,-0.18115 0.9239,-1.64854 1.75723,-1.10506 0.30797,-1.39492 1.4855,0.38043 v -1.72099 l -0.47101,-1.59419 -0.27174,-3.00722 -0.56159,-0.3442 -0.18116,-1.3768 -0.39855,-1.52172 0.52536,-0.99637 1.26811,-0.1087 0.14492,-0.90578 -0.63405,-0.18116 -1.43115,-0.0543 -1.28622,1.6123 0.76087,1.93839 -1.17753,2.10143 -1.06883,-0.38043 0.38043,-0.88767 -0.0362,-1.01449 -0.96014,-0.90578 0.43478,-1.3768 -0.65216,-0.56159 -1.35869,0.2355 -0.2355,2.04709 -0.81521,0.48912 -0.4529,-2.0652 0.0181,-2.48186 -0.97825,-1.43114 -1.8297,-0.0362 -1.97462,0.32609 -3.20649,-0.7971 -1.70288,-0.81521 -2.44563,-1.15941 -0.57971,-0.85144 -1.93838,-0.10869 -0.57971,-0.83333 -0.81521,-0.63405 -1.34057,-0.2355 -3.73185,-1.23188 -2.95287,-1.32245 -1.721,-1.08695 -8.26079,-7.84413 -2.0652,-2.46374 -0.3442,-0.36232 -1.06883,-1.06883 -0.88767,-0.77898 -0.96014,-0.85144 -1.721,-0.48912 -0.27173,0.0725 0.85144,1.46738 0.83332,0.9239 -0.38043,1.43115 -0.77897,0.56159 -0.3442,0.86955 -0.7971,0.54348 0.12681,0.59782 -0.79709,1.92027 -1.0326,0.23551 0.56159,2.60867 -0.85144,1.23187 -0.88768,3.98547 0.0543,3.71373 0.30797,0.7971 0.0181,0.0181 h -0.0181 v 0.0181 l 0.27174,0.14493 0.3442,0.19927 0.45289,0.54347 0.0362,0.0543 0.0362,0.0362 1.19564,2.26447 0.16305,0.28986 0.74274,3.29707 0.0362,0.36231 -0.12681,4.54706 -0.16304,1.97462 -0.18116,1.68477 -0.0906,0.47101 v 0.0181 l -0.97825,4.78256 -0.25362,2.02897 -0.0181,0.50724 0.39855,2.02897 0.97825,0.86955 -0.38043,7.42747 -0.85145,3.13403 -1.06883,3.60504 0.50725,0.0543 0.54347,-3.35142 1.52172,-0.10869 1.43115,0.9239 0.96014,0.76086 -0.12681,1.61231 4.00358,2.19201 1.43115,-0.0181 -0.32609,0.86955 -1.41303,-0.0543 h -0.0362 l -0.68839,0.14493 -3.2065,0.1087 -1.59419,1.06883 -0.2355,0.6884 0.0181,1.15941 -1.14129,0.18115 -0.39855,-1.12318 -0.77898,0.4529 0.32608,-2.95287 h -0.0362 l -0.59782,-0.28985 v 4.65575 l -0.72463,2.39128 0.57971,0.52536 0.67028,-0.30797 0.85144,0.72463 0.61594,-0.65217 1.08695,1.05072 0.74274,-0.57971 1.0326,-0.0906 0.0543,1.10507 0.86956,0.86955 0.54347,1.721 1.01448,0.0725 0.1087,0.6884 -1.41303,0.25362 -0.57971,-0.25362 -0.0906,-1.2681 -2.31881,0.18116 -0.1087,1.77534 0.48913,0.94202 -0.77898,0.88767 -0.90579,-1.30433 0.39855,2.21012 0.0362,1.41303 -0.67029,0.99637 -1.06883,0.23551 0.36232,1.3768 -0.19928,0.5797 0.85145,0.59782 0.61593,0.92391 -0.30797,1.32245 -0.5797,-0.23551 -0.0362,-1.05071 -0.83333,-0.6884 -1.34056,0.79709 -0.43478,1.15941 -0.97825,-0.74275 -0.86956,-0.2355 1.01448,-5.72459 0.77898,-2.91664 0.0362,-2.10142 -3.442,11.99264 -0.72463,0.97825 1.28622,-0.32608 0.96014,0.50724 0.67028,0.65217 -0.0725,0.94202 1.44926,1.97462 0.85145,0.50724 4.7101,-0.76087 4.61952,2.71737 1.88404,0.1087 0.16304,0.10869 0.0906,0.0362 0.1087,0.19927 0.41666,0.76087 0.30797,0.97825 -0.63405,1.86592 1.21375,1.90216 0.21739,0.0725 4.49271,0.18116 0.0181,-0.0181 v 0.0181 l 1.4855,-0.27174 1.3768,0.56159 4.69198,5.76082 0.27174,1.10506 0.81521,4.54706 -0.25362,3.94924 -0.21739,0.6884 -0.76086,5.07241 -0.61594,1.05072 -0.27174,0.76086 0.0362,1.01448 0.56159,0.72464 1.4855,1.55795 0.77898,0.57971 8.07963,4.98184 0.94202,0.47101 h 0.0181 l 0.79709,0.19927 h 0.54348 v 0.0181 l 10.3441,-1.43114 0.81521,-0.72463 1.23188,-0.63405 1.721,-0.1087 2.01085,1.10506 0.79709,0.19928 2.4094,0.18115 3.11591,0.0543 1.97462,1.721 1.99274,0.28985 0.99636,0.19928 3.58693,2.04708 0.45289,3.29707 3.89489,-1.63042 2.64491,1.23187 0.63405,0.83333 1.52172,-0.47101 2.55433,-0.39855 3.11591,-0.43478 1.24999,-0.59782 0.61594,-0.19927 1.23187,0.30797 0.81521,0.56159 0.76086,1.43114 0.3442,0.50724 0.59782,0.38043 2.26447,0.39855 5.7427,0.3442 1.52173,-1.14129 0.9239,-0.23551 4.36591,-0.54347 h 4.00358 v 0.0181 l 2.78983,0.28985 3.02534,0.28985 1.28622,-1.32245 1.48549,-0.86956 1.57607,0.88767 1.28622,0.61594 1.64854,0.1087 1.64853,0.0906 4.3659,0.59783 0.7971,0.41666 0.74275,0.18116 1.2681,0.0906 1.0326,-0.16304 2.11954,-0.61593 0.61594,-0.27174 0.81521,-0.6884 27.97076,6.70284 0.0181,-0.0181 -0.0181,0.0362 0.52536,0.12681 10.57961,2.55432 3.47823,0.83333 15.95999,3.73185 -0.18115,-2.88041 1.39491,-3.82243 -0.18116,-3.56881 -0.27173,-2.3007 -0.0362,-0.14493 -0.90579,-3.6775 0.61593,-1.81158 h 0.0181 l 1.06883,-4.7101 5.32604,-23.69543 1.21375,-5.32604 h -0.0181 l 0.97825,-4.31155 5.48908,-24.67369 0.63405,-2.7536 7.48182,-32.17361 1.41303,-6.12314 -10.74266,-2.48186 v -0.0181 l -20.74256,-4.85503 -0.0181,0.0181 -17.24621,-4.16663 v 0.0181 -0.0181 l -7.97094,-1.97462 -15.30783,-3.84054 -30.85117,-8.09775 -7.39123,-1.99274 -16.77521,-4.42025 -9.23905,-2.78983 -8.20644,-2.33693 z m -16.55782,8.71368 0.48913,0.90579 1.0326,1.24999 1.55795,0.92391 -0.32608,-0.77898 -0.0906,-0.67029 -1.08695,-0.88767 -0.79709,-0.74275 z m 6.72095,0.12681 -1.08694,0.1087 -0.83333,0.43478 0.4529,0.65216 -0.18116,0.6884 1.28622,-0.27173 0.27173,-0.90579 z m 2.22824,1.32246 -0.70651,0.0906 -2.42752,1.50361 -1.10506,0.7971 v 0.67028 l 0.85144,0.0181 0.41667,0.88767 0.30796,-0.54347 v -0.90579 l 0.61594,0.21739 -0.12681,0.77898 0.1087,0.86955 0.54347,0.85144 1.2681,-0.18115 0.19928,-0.43478 -0.0543,-1.06883 -0.27174,-1.721 0.0906,-1.1413 0.76086,0.19928 -0.12681,1.9565 0.57971,1.26811 0.14492,1.19564 0.76087,-0.0181 0.0181,-0.86956 0.85144,-0.25362 v -0.0362 l 0.92391,-0.3442 0.48912,-0.32608 -0.0181,-0.0543 -1.99274,-2.13766 -0.97825,-0.88767 -0.47101,-0.23551 z m 6.03256,0.14492 -0.76087,1.28622 0.56159,0.67029 0.16305,1.39491 0.85144,1.3768 0.72463,0.38043 0.0725,-1.21376 -0.76086,-0.96013 -0.39855,-1.8297 z m -14.05784,1.43115 -0.63406,0.47101 -0.32608,0.36231 -0.0543,0.25362 0.48913,0.6884 -0.32609,0.63406 0.18116,1.39491 0.14493,0.70652 0.16304,0.41666 0.43478,0.67028 1.79346,1.92027 0.79709,0.61594 1.05072,0.41666 0.2355,-0.61593 -1.0326,-0.36232 -0.0725,-1.19564 0.3442,-0.77898 0.70652,0.19928 0.61593,-0.52536 -0.45289,-0.4529 -0.65217,-0.18115 0.0725,-0.81521 -0.85144,-1.26811 -0.85144,-1.10506 0.38043,-0.79709 -1.41303,-0.47101 z m 4.38401,2.31882 -0.48912,0.67028 0.52535,0.30797 0.12681,0.9239 0.88768,0.52536 0.27173,-0.59782 0.52536,0.12681 0.39855,-0.32608 -0.81521,-0.77898 -0.76086,-0.47101 z m 7.62674,1.721 -0.90578,0.99636 0.21738,0.99637 -0.0543,0.99637 0.85144,-0.3442 0.3442,-0.56159 0.39855,-0.16304 -0.21739,-0.59782 0.0362,-0.74275 z m -4.63763,0.0543 -0.36232,0.18116 -0.38043,0.54347 -0.56159,-0.0362 -0.77898,1.39492 -0.59782,0.85144 -0.0906,1.08694 0.72463,0.48913 -0.18115,1.44926 0.41666,0.32609 0.25362,0.10869 1.721,0.32609 0.30797,-0.19928 0.16304,-0.85144 0.0725,-1.19564 1.24999,-0.92391 -0.0906,-0.96013 -1.3768,-0.12681 -0.0543,1.12318 -0.47101,1.19564 -0.18115,-0.27174 0.14492,-0.65217 -0.56159,-0.81521 0.52536,-0.5797 0.81521,-0.76086 -0.59782,-0.25363 0.0543,-0.63405 z m 1.19564,0.18116 -0.1087,0.70652 0.0906,1.37679 0.63405,0.0181 0.94202,-0.43478 -0.21739,-0.96013 -0.5797,-0.59782 z m 5.23546,1.19564 -0.85145,2.35505 2.08332,0.47101 -0.12681,-1.01448 z m -1.97462,7.30066 -0.21739,0.0906 -0.16305,0.70651 -0.39854,0.6884 -2.28259,2.13766 -0.38043,0.6884 -1.26811,0.99637 -0.50724,1.08695 0.4529,0.59782 0.18116,0.56159 0.56158,0.41666 0.32609,1.721 1.08694,-0.18116 0.81521,0.54347 v 1.73912 l -1.24998,1.55796 0.36231,1.32245 -0.48912,0.39854 0.27173,0.97826 0.6884,0.3442 0.30797,0.81521 -0.32608,0.65217 0.32608,0.43477 0.63405,-0.2355 0.76086,-0.23551 0.50725,0.30797 0.41666,0.88768 0.16304,0.83332 -0.36231,0.56159 0.0181,0.6884 1.26811,0.19927 1.12317,-0.54347 0.52536,-1.19564 -0.18116,-1.21376 0.36232,-1.3768 -0.88767,-0.48913 -0.72464,-0.90578 -0.38043,-1.17753 -0.50724,-0.97825 -0.74274,-0.23551 -0.30797,1.08695 0.0362,1.43115 -0.92391,0.81521 -0.16304,-1.01449 0.39855,-1.55795 -0.54347,-1.23188 0.72463,-0.74274 -0.12681,-2.44563 -0.28986,-1.55796 -1.17752,-0.83333 -1.68477,-0.0543 -0.0181,-1.05072 1.46737,0.25362 0.72463,-0.83332 0.97826,-0.74275 0.27173,-0.14493 h 0.56159 l 0.41666,0.12681 0.21739,0.19928 0.28986,0.63405 0.18115,0.0725 0.56159,0.12681 0.25362,-0.0543 0.59782,-0.36232 0.0543,-0.0906 0.0543,-0.39854 -0.12681,-0.48913 -1.73912,-2.01085 0.72464,-1.4855 -0.18116,-0.50724 -0.0906,-0.19927 -0.18116,-0.12681 -0.25362,0.10869 -0.14493,0.1087 z m 3.65938,6.64849 -0.59782,0.74275 -0.5797,-0.41667 -0.96014,0.16304 -0.86956,1.66666 0.25363,0.70651 -0.28986,0.36232 0.12681,2.06519 0.38043,0.61594 0.57971,-0.10869 0.43478,0.94202 0.54347,0.5797 0.48913,1.05072 0.10869,0.96013 0.6884,0.1087 -0.14493,-1.30434 -0.99636,-2.17389 -0.59782,-1.57607 0.0725,-1.05072 0.94202,-0.0725 0.3442,-0.94202 0.16304,-0.59782 0.50724,0.16304 0.23551,0.43478 0.36231,0.10869 0.1087,-1.01448 z m -8.42383,5.07242 -1.1413,0.10869 -0.18115,2.02897 0.79709,1.52172 0.23551,-2.04708 z m -0.77898,16.52158 -1.17753,1.90216 -0.63405,2.62679 0.90579,-0.19927 0.32608,1.32245 0.99637,-0.0543 0.0725,-1.66665 0.47101,-2.69926 z m -0.16304,8.98543 -0.30797,0.86956 -0.63405,0.6884 -0.61594,1.0326 -0.81521,1.86592 -0.6884,2.04708 1.08695,-0.16304 0.99637,-0.63405 1.34056,-0.23551 0.83333,-0.36231 -1.17753,-0.65217 0.21739,-0.94202 -0.0725,-2.26447 0.27174,-0.99637 z m -12.88032,4.83691 -1.2681,0.47101 -1.05072,0.59782 0.23551,2.66302 0.0725,1.63042 1.44926,-1.10506 -0.25362,-2.21013 z m 5.03619,3.18838 0.74274,2.13766 0.74275,-0.38043 z m -1.1413,1.28622 -1.23187,0.0906 0.41666,1.10506 1.44926,0.0181 z m -1.53984,1.64853 -0.70651,0.81521 0.50724,1.52173 0.9239,-0.86956 -0.0906,-1.2681 z m -43.7496,17.62665 -0.0362,0.85144 0.19928,0.76087 -0.18116,0.65216 0.39855,0.41667 0.25362,-0.4529 0.0362,-1.73911 z"
     style="fill:#d0d0d0;stroke-width:1.81158"
     id="path5" />
</svg>
